<?xml version="1.0" encoding="UTF-8" standalone="no"?>
<!DOCTYPE svg PUBLIC "-//W3C//DTD SVG 1.1//EN"
 "http://www.w3.org/Graphics/SVG/1.1/DTD/svg11.dtd">
<!-- Generated by graphviz version 2.43.0 (0)
 -->
<!-- Title: AlgoTree Pages: 1 -->
<svg width="2967pt" height="1302pt"
 viewBox="0.00 0.00 2966.50 1302.00" xmlns="http://www.w3.org/2000/svg" xmlns:xlink="http://www.w3.org/1999/xlink">
<g id="graph0" class="graph" transform="scale(1 1) rotate(0) translate(4 1298)">
<title>AlgoTree</title>
<polygon fill="#0e1411" stroke="transparent" points="-4,4 -4,-1298 2962.5,-1298 2962.5,4 -4,4"/>
<text text-anchor="start" x="1213.25" y="-1275" font-family="Helvetica,sans-Serif" font-weight="bold" font-size="20.00" fill="#ecf1ed">Agrinoze — Sensation Irrigation Algorithm · Stage Machine</text>
<text text-anchor="start" x="1136.75" y="-1262.2" font-family="Helvetica,sans-Serif" font-size="11.00" fill="#8fa396">Green = stages &#160;&#160;· &#160;&#160;Blue = decisions/triggers &#160;&#160;· &#160;&#160;Amber = yellow alerts &#160;&#160;· &#160;&#160;Red = red alerts &#160;&#160;· &#160;&#160;Purple = manual override</text>
<text text-anchor="start" x="1476.75" y="-1248.8" font-family="Helvetica,sans-Serif" font-size="9.00" fill="#8fa396">All threshold comparisons use daily sensor averages (mean of 144 readings · 1 per 10 min) — PRD 19.6.26</text>
<g id="clust1" class="cluster">
<title>cluster_alerts</title>
<path fill="#1c1210" stroke="#e8514e" stroke-dasharray="5,2" d="M1240.5,-1142C1240.5,-1142 1998.5,-1142 1998.5,-1142 2004.5,-1142 2010.5,-1148 2010.5,-1154 2010.5,-1154 2010.5,-1209 2010.5,-1209 2010.5,-1215 2004.5,-1221 1998.5,-1221 1998.5,-1221 1240.5,-1221 1240.5,-1221 1234.5,-1221 1228.5,-1215 1228.5,-1209 1228.5,-1209 1228.5,-1154 1228.5,-1154 1228.5,-1148 1234.5,-1142 1240.5,-1142"/>
<text text-anchor="start" x="1425.5" y="-1208.4" font-family="Helvetica,sans-Serif" font-weight="bold" font-size="12.00" fill="#e8514e">UNIVERSAL ALERTS &#160;— &#160;checked every cycle, in any stage</text>
</g>
<g id="clust2" class="cluster">
<title>cluster_stagealerts</title>
<path fill="#1a160e" stroke="#e8a33d" stroke-dasharray="5,2" d="M2034.5,-1142C2034.5,-1142 2938.5,-1142 2938.5,-1142 2944.5,-1142 2950.5,-1148 2950.5,-1154 2950.5,-1154 2950.5,-1209 2950.5,-1209 2950.5,-1215 2944.5,-1221 2938.5,-1221 2938.5,-1221 2034.5,-1221 2034.5,-1221 2028.5,-1221 2022.5,-1215 2022.5,-1209 2022.5,-1209 2022.5,-1154 2022.5,-1154 2022.5,-1148 2028.5,-1142 2034.5,-1142"/>
<text text-anchor="start" x="2436.5" y="-1208.4" font-family="Helvetica,sans-Serif" font-weight="bold" font-size="12.00" fill="#e8a33d">STAGE ALERTS</text>
</g>
<g id="clust3" class="cluster">
<title>cluster_override</title>
<path fill="#15101c" stroke="#9b7fe0" stroke-dasharray="5,2" d="M622.5,-906C622.5,-906 1203.5,-906 1203.5,-906 1209.5,-906 1215.5,-912 1215.5,-918 1215.5,-918 1215.5,-1221 1215.5,-1221 1215.5,-1227 1209.5,-1233 1203.5,-1233 1203.5,-1233 622.5,-1233 622.5,-1233 616.5,-1233 610.5,-1227 610.5,-1221 610.5,-1221 610.5,-918 610.5,-918 610.5,-912 616.5,-906 622.5,-906"/>
<text text-anchor="start" x="733" y="-1220.4" font-family="Helvetica,sans-Serif" font-weight="bold" font-size="12.00" fill="#9b7fe0">MANUAL OVERRIDE &#160;— &#160;available any time after start</text>
</g>
<!-- awaiting -->
<g id="node1" class="node">
<title>awaiting</title>
<path fill="#1d5e40" stroke="#46b97a" d="M577,-1198C577,-1198 344,-1198 344,-1198 338,-1198 332,-1192 332,-1186 332,-1186 332,-1156 332,-1156 332,-1150 338,-1144 344,-1144 344,-1144 577,-1144 577,-1144 583,-1144 589,-1150 589,-1156 589,-1156 589,-1186 589,-1186 589,-1192 583,-1198 577,-1198"/>
<text text-anchor="middle" x="460.5" y="-1180.2" font-family="Helvetica,sans-Serif" font-size="11.00" fill="#ecf1ed">① AWAITING START</text>
<text text-anchor="middle" x="460.5" y="-1168.2" font-family="Helvetica,sans-Serif" font-size="11.00" fill="#ecf1ed">sensors monitored · no irrigation</text>
<text text-anchor="middle" x="460.5" y="-1156.2" font-family="Helvetica,sans-Serif" font-size="11.00" fill="#ecf1ed">requires manual agronomist confirmation</text>
</g>
<!-- d_start -->
<g id="node6" class="node">
<title>d_start</title>
<path fill="#16202e" stroke="#5ba3d0" d="M449.32,-1087.65C449.32,-1087.65 363.68,-1054.35 363.68,-1054.35 358.09,-1052.17 358.09,-1047.83 363.68,-1045.65 363.68,-1045.65 449.32,-1012.35 449.32,-1012.35 454.91,-1010.17 466.09,-1010.17 471.68,-1012.35 471.68,-1012.35 557.32,-1045.65 557.32,-1045.65 562.91,-1047.83 562.91,-1052.17 557.32,-1054.35 557.32,-1054.35 471.68,-1087.65 471.68,-1087.65 466.09,-1089.83 454.91,-1089.83 449.32,-1087.65"/>
<text text-anchor="middle" x="460.5" y="-1053.2" font-family="Helvetica,sans-Serif" font-size="11.00" fill="#cfe2f0">Agronomist</text>
<text text-anchor="middle" x="460.5" y="-1041.2" font-family="Helvetica,sans-Serif" font-size="11.00" fill="#cfe2f0">presses Start?</text>
</g>
<!-- awaiting&#45;&gt;d_start -->
<g id="edge1" class="edge">
<title>awaiting&#45;&gt;d_start</title>
<path fill="none" stroke="#5e7468" stroke-width="1.2" d="M460.5,-1143.88C460.5,-1131.66 460.5,-1116.66 460.5,-1102.31"/>
<polygon fill="#5e7468" stroke="#5e7468" stroke-width="1.2" points="464,-1102.02 460.5,-1092.02 457,-1102.02 464,-1102.02"/>
</g>
<!-- cal1 -->
<g id="node2" class="node">
<title>cal1</title>
<path fill="#1d5e40" stroke="#46b97a" d="M551,-962C551,-962 370,-962 370,-962 364,-962 358,-956 358,-950 358,-950 358,-920 358,-920 358,-914 364,-908 370,-908 370,-908 551,-908 551,-908 557,-908 563,-914 563,-920 563,-920 563,-950 563,-950 563,-956 557,-962 551,-962"/>
<text text-anchor="middle" x="460.5" y="-944.2" font-family="Helvetica,sans-Serif" font-size="11.00" fill="#ecf1ed">② CALIBRATION 1 — Drenching</text>
<text text-anchor="middle" x="460.5" y="-932.2" font-family="Helvetica,sans-Serif" font-size="11.00" fill="#ecf1ed">200 pulses × 120s &#160;(6.67 L/day)</text>
<text text-anchor="middle" x="460.5" y="-920.2" font-family="Helvetica,sans-Serif" font-size="11.00" fill="#ecf1ed">interval 7.2 min · 5.2 min off</text>
</g>
<!-- d_cal1 -->
<g id="node7" class="node">
<title>d_cal1</title>
<path fill="#16202e" stroke="#5ba3d0" d="M449,-858.57C449,-858.57 331,-823.43 331,-823.43 325.25,-821.71 325.25,-818.29 331,-816.57 331,-816.57 449,-781.43 449,-781.43 454.75,-779.71 466.25,-779.71 472,-781.43 472,-781.43 590,-816.57 590,-816.57 595.75,-818.29 595.75,-821.71 590,-823.43 590,-823.43 472,-858.57 472,-858.57 466.25,-860.29 454.75,-860.29 449,-858.57"/>
<text text-anchor="middle" x="460.5" y="-823.2" font-family="Helvetica,sans-Serif" font-size="11.00" fill="#cfe2f0">T20 daily avg</text>
<text text-anchor="middle" x="460.5" y="-811.2" font-family="Helvetica,sans-Serif" font-size="11.00" fill="#cfe2f0">3 consecutive days?</text>
</g>
<!-- cal1&#45;&gt;d_cal1 -->
<g id="edge4" class="edge">
<title>cal1&#45;&gt;d_cal1</title>
<path fill="none" stroke="#5e7468" stroke-width="1.2" d="M460.5,-907.79C460.5,-897.2 460.5,-884.58 460.5,-872.3"/>
<polygon fill="#5e7468" stroke="#5e7468" stroke-width="1.2" points="464,-872.12 460.5,-862.12 457,-872.12 464,-872.12"/>
</g>
<!-- cal2 -->
<g id="node3" class="node">
<title>cal2</title>
<path fill="#1d5e40" stroke="#46b97a" d="M548,-732C548,-732 373,-732 373,-732 367,-732 361,-726 361,-720 361,-720 361,-678 361,-678 361,-672 367,-666 373,-666 373,-666 548,-666 548,-666 554,-666 560,-672 560,-678 560,-678 560,-720 560,-720 560,-726 554,-732 548,-732"/>
<text text-anchor="middle" x="460.5" y="-714.2" font-family="Helvetica,sans-Serif" font-size="11.00" fill="#ecf1ed">③ CALIBRATION 2 — Reduction</text>
<text text-anchor="middle" x="460.5" y="-702.2" font-family="Helvetica,sans-Serif" font-size="11.00" fill="#ecf1ed">180 pulses × 30s &#160;(1.5 L/day)</text>
<text text-anchor="middle" x="460.5" y="-690.2" font-family="Helvetica,sans-Serif" font-size="11.00" fill="#ecf1ed">interval 8.0 min · 7.5 min off</text>
<text text-anchor="middle" x="460.5" y="-678.2" font-family="Helvetica,sans-Serif" font-size="11.00" fill="#ecf1ed">(extended&#45;pulse sites: 60s)</text>
</g>
<!-- d_cal2 -->
<g id="node8" class="node">
<title>d_cal2</title>
<path fill="#16202e" stroke="#5ba3d0" d="M449,-616.57C449,-616.57 331,-581.43 331,-581.43 325.25,-579.71 325.25,-576.29 331,-574.57 331,-574.57 449,-539.43 449,-539.43 454.75,-537.71 466.25,-537.71 472,-539.43 472,-539.43 590,-574.57 590,-574.57 595.75,-576.29 595.75,-579.71 590,-581.43 590,-581.43 472,-616.57 472,-616.57 466.25,-618.29 454.75,-618.29 449,-616.57"/>
<text text-anchor="middle" x="460.5" y="-581.2" font-family="Helvetica,sans-Serif" font-size="11.00" fill="#cfe2f0">T20 daily avg</text>
<text text-anchor="middle" x="460.5" y="-569.2" font-family="Helvetica,sans-Serif" font-size="11.00" fill="#cfe2f0">3 consecutive days?</text>
</g>
<!-- cal2&#45;&gt;d_cal2 -->
<g id="edge7" class="edge">
<title>cal2&#45;&gt;d_cal2</title>
<path fill="none" stroke="#5e7468" stroke-width="1.2" d="M460.5,-665.8C460.5,-654.94 460.5,-642.53 460.5,-630.55"/>
<polygon fill="#5e7468" stroke="#5e7468" stroke-width="1.2" points="464,-630.2 460.5,-620.2 457,-630.2 464,-630.2"/>
</g>
<!-- ov_exec -->
<g id="node26" class="node">
<title>ov_exec</title>
<path fill="#241a2e" stroke="#9b7fe0" d="M1195,-1204C1195,-1204 1010,-1204 1010,-1204 1004,-1204 998,-1198 998,-1192 998,-1192 998,-1150 998,-1150 998,-1144 1004,-1138 1010,-1138 1010,-1138 1195,-1138 1195,-1138 1201,-1138 1207,-1144 1207,-1150 1207,-1150 1207,-1192 1207,-1192 1207,-1198 1201,-1204 1195,-1204"/>
<text text-anchor="middle" x="1102.5" y="-1186.2" font-family="Helvetica,sans-Serif" font-size="11.00" fill="#e5d9f5">Execute</text>
<text text-anchor="middle" x="1102.5" y="-1174.2" font-family="Helvetica,sans-Serif" font-size="11.00" fill="#e5d9f5">1. save snapshot of current auto</text>
<text text-anchor="middle" x="1102.5" y="-1162.2" font-family="Helvetica,sans-Serif" font-size="11.00" fill="#e5d9f5">2. stage manual values</text>
<text text-anchor="middle" x="1102.5" y="-1150.2" font-family="Helvetica,sans-Serif" font-size="11.00" fill="#e5d9f5">→ applies next midnight cycle</text>
</g>
<!-- cal2&#45;&gt;ov_exec -->
<g id="edge30" class="edge">
<title>cal2&#45;&gt;ov_exec</title>
<path fill="none" stroke="#9b7fe0" stroke-width="1.2" stroke-dasharray="1,5" d="M560.17,-712.02C747.8,-736.9 1141.9,-800.72 1222.5,-906 1273.28,-972.33 1238.36,-1020.3 1195.5,-1092 1186.64,-1106.82 1173.93,-1120.14 1160.74,-1131.4"/>
<polygon fill="#9b7fe0" stroke="#9b7fe0" stroke-width="1.2" points="1158.45,-1128.75 1152.94,-1137.8 1162.89,-1134.16 1158.45,-1128.75"/>
<text text-anchor="middle" x="1304" y="-932.4" font-family="Helvetica,sans-Serif" font-size="9.50" fill="#c9b5ec"> agronomist intervenes </text>
</g>
<!-- cal3 -->
<g id="node4" class="node">
<title>cal3</title>
<path fill="#1d5e40" stroke="#46b97a" d="M566.5,-490C566.5,-490 354.5,-490 354.5,-490 348.5,-490 342.5,-484 342.5,-478 342.5,-478 342.5,-448 342.5,-448 342.5,-442 348.5,-436 354.5,-436 354.5,-436 566.5,-436 566.5,-436 572.5,-436 578.5,-442 578.5,-448 578.5,-448 578.5,-478 578.5,-478 578.5,-484 572.5,-490 566.5,-490"/>
<text text-anchor="middle" x="460.5" y="-472.2" font-family="Helvetica,sans-Serif" font-size="11.00" fill="#ecf1ed">④ CALIBRATION 3 — Stabilisation</text>
<text text-anchor="middle" x="460.5" y="-460.2" font-family="Helvetica,sans-Serif" font-size="11.00" fill="#ecf1ed">repeating 2&#45;week windows</text>
<text text-anchor="middle" x="460.5" y="-448.2" font-family="Helvetica,sans-Serif" font-size="11.00" fill="#ecf1ed">±20 pulses per window (alternatives)</text>
</g>
<!-- d_cal3 -->
<g id="node9" class="node">
<title>d_cal3</title>
<path fill="#16202e" stroke="#5ba3d0" d="M448.92,-395.84C448.92,-395.84 318.08,-360.16 318.08,-360.16 312.29,-358.58 312.29,-355.42 318.08,-353.84 318.08,-353.84 448.92,-318.16 448.92,-318.16 454.71,-316.58 466.29,-316.58 472.08,-318.16 472.08,-318.16 602.92,-353.84 602.92,-353.84 608.71,-355.42 608.71,-358.58 602.92,-360.16 602.92,-360.16 472.08,-395.84 472.08,-395.84 466.29,-397.42 454.71,-397.42 448.92,-395.84"/>
<text text-anchor="middle" x="460.5" y="-360.2" font-family="Helvetica,sans-Serif" font-size="11.00" fill="#cfe2f0">End of 2&#45;week window:</text>
<text text-anchor="middle" x="460.5" y="-348.2" font-family="Helvetica,sans-Serif" font-size="11.00" fill="#cfe2f0">T20 daily avg 20–40mb?</text>
</g>
<!-- cal3&#45;&gt;d_cal3 -->
<g id="edge10" class="edge">
<title>cal3&#45;&gt;d_cal3</title>
<path fill="none" stroke="#5e7468" stroke-width="1.2" d="M460.5,-435.76C460.5,-427.71 460.5,-418.57 460.5,-409.45"/>
<polygon fill="#5e7468" stroke="#5e7468" stroke-width="1.2" points="464,-409.22 460.5,-399.22 457,-409.22 464,-409.22"/>
</g>
<!-- opt -->
<g id="node5" class="node">
<title>opt</title>
<path fill="#1d5e40" stroke="#46b97a" d="M473.5,-266C473.5,-266 275.5,-266 275.5,-266 269.5,-266 263.5,-260 263.5,-254 263.5,-254 263.5,-224 263.5,-224 263.5,-218 269.5,-212 275.5,-212 275.5,-212 473.5,-212 473.5,-212 479.5,-212 485.5,-218 485.5,-224 485.5,-224 485.5,-254 485.5,-254 485.5,-260 479.5,-266 473.5,-266"/>
<text text-anchor="middle" x="374.5" y="-248.2" font-family="Helvetica,sans-Serif" font-size="11.00" fill="#ecf1ed">⑤ CONTINUOUS OPTIMIZATION</text>
<text text-anchor="middle" x="374.5" y="-236.2" font-family="Helvetica,sans-Serif" font-size="11.00" fill="#ecf1ed">pulse duration fixed 30s</text>
<text text-anchor="middle" x="374.5" y="-224.2" font-family="Helvetica,sans-Serif" font-size="11.00" fill="#ecf1ed">2&#45;week VWC daily avg + tensiometer daily avg checks</text>
</g>
<!-- d_opt -->
<g id="node11" class="node">
<title>d_opt</title>
<path fill="#16202e" stroke="#5ba3d0" d="M256.94,-159.78C256.94,-159.78 129.06,-124.22 129.06,-124.22 123.28,-122.61 123.28,-119.39 129.06,-117.78 129.06,-117.78 256.94,-82.22 256.94,-82.22 262.72,-80.61 274.28,-80.61 280.06,-82.22 280.06,-82.22 407.94,-117.78 407.94,-117.78 413.72,-119.39 413.72,-122.61 407.94,-124.22 407.94,-124.22 280.06,-159.78 280.06,-159.78 274.28,-161.39 262.72,-161.39 256.94,-159.78"/>
<text text-anchor="middle" x="268.5" y="-124.2" font-family="Helvetica,sans-Serif" font-size="11.00" fill="#cfe2f0">End of 2&#45;week window</text>
<text text-anchor="middle" x="268.5" y="-112.2" font-family="Helvetica,sans-Serif" font-size="11.00" fill="#cfe2f0">evaluation</text>
</g>
<!-- opt&#45;&gt;d_opt -->
<g id="edge17" class="edge">
<title>opt&#45;&gt;d_opt</title>
<path fill="none" stroke="#5e7468" stroke-width="1.2" d="M350.71,-211.97C337.37,-197.37 320.44,-178.84 305.42,-162.4"/>
<polygon fill="#5e7468" stroke="#5e7468" stroke-width="1.2" points="308,-160.04 298.67,-155.02 302.83,-164.76 308,-160.04"/>
</g>
<!-- d_start&#45;&gt;awaiting -->
<g id="edge3" class="edge">
<title>d_start&#45;&gt;awaiting</title>
<path fill="none" stroke="#5e7468" stroke-width="1.2" stroke-dasharray="5,2" d="M478.7,-1085.03C482.61,-1096.06 484.93,-1108.43 482.5,-1120 481.49,-1124.79 479.99,-1129.69 478.25,-1134.45"/>
<polygon fill="#5e7468" stroke="#5e7468" stroke-width="1.2" points="474.91,-1133.37 474.38,-1143.96 481.39,-1136.01 474.91,-1133.37"/>
<text text-anchor="middle" x="508" y="-1112.4" font-family="Helvetica,sans-Serif" font-size="9.50" fill="#a8c0b0"> no (wait) </text>
</g>
<!-- d_start&#45;&gt;cal1 -->
<g id="edge2" class="edge">
<title>d_start&#45;&gt;cal1</title>
<path fill="none" stroke="#5e7468" stroke-width="1.2" d="M460.5,-1007.88C460.5,-996.19 460.5,-983.55 460.5,-972.17"/>
<polygon fill="#5e7468" stroke="#5e7468" stroke-width="1.2" points="464,-972.15 460.5,-962.15 457,-972.15 464,-972.15"/>
<text text-anchor="middle" x="472" y="-982.4" font-family="Helvetica,sans-Serif" font-size="9.50" fill="#a8c0b0"> yes </text>
</g>
<!-- d_cal1&#45;&gt;cal1 -->
<g id="edge6" class="edge">
<title>d_cal1&#45;&gt;cal1</title>
<path fill="none" stroke="#5e7468" stroke-width="1.2" stroke-dasharray="5,2" d="M478.79,-856.9C482.17,-867.48 483.96,-879.13 481.5,-890 480.87,-892.79 480.04,-895.6 479.07,-898.39"/>
<polygon fill="#5e7468" stroke="#5e7468" stroke-width="1.2" points="475.82,-897.11 475.37,-907.7 482.32,-899.7 475.82,-897.11"/>
<text text-anchor="middle" x="536" y="-882.4" font-family="Helvetica,sans-Serif" font-size="9.50" fill="#a8c0b0"> no (keep 200×120s) </text>
</g>
<!-- d_cal1&#45;&gt;cal2 -->
<g id="edge5" class="edge">
<title>d_cal1&#45;&gt;cal2</title>
<path fill="none" stroke="#5e7468" stroke-width="1.2" d="M460.5,-777.71C460.5,-766.3 460.5,-753.9 460.5,-742.43"/>
<polygon fill="#5e7468" stroke="#5e7468" stroke-width="1.2" points="464,-742.21 460.5,-732.21 457,-742.21 464,-742.21"/>
<text text-anchor="middle" x="472" y="-752.4" font-family="Helvetica,sans-Serif" font-size="9.50" fill="#a8c0b0"> yes </text>
</g>
<!-- d_cal2&#45;&gt;cal2 -->
<g id="edge9" class="edge">
<title>d_cal2&#45;&gt;cal2</title>
<path fill="none" stroke="#5e7468" stroke-width="1.2" stroke-dasharray="5,2" d="M474.45,-616.05C476.86,-626.34 478.13,-637.55 476.5,-648 476.09,-650.65 475.56,-653.36 474.94,-656.06"/>
<polygon fill="#5e7468" stroke="#5e7468" stroke-width="1.2" points="471.54,-655.25 472.4,-665.81 478.31,-657.01 471.54,-655.25"/>
<text text-anchor="middle" x="527" y="-640.4" font-family="Helvetica,sans-Serif" font-size="9.50" fill="#a8c0b0"> no (keep 180×30s) </text>
</g>
<!-- d_cal2&#45;&gt;cal3 -->
<g id="edge8" class="edge">
<title>d_cal2&#45;&gt;cal3</title>
<path fill="none" stroke="#5e7468" stroke-width="1.2" d="M460.5,-535.88C460.5,-524.19 460.5,-511.55 460.5,-500.17"/>
<polygon fill="#5e7468" stroke="#5e7468" stroke-width="1.2" points="464,-500.15 460.5,-490.15 457,-500.15 464,-500.15"/>
<text text-anchor="middle" x="472" y="-510.4" font-family="Helvetica,sans-Serif" font-size="9.50" fill="#a8c0b0"> yes </text>
</g>
<!-- d_cal3&#45;&gt;opt -->
<g id="edge11" class="edge">
<title>d_cal3&#45;&gt;opt</title>
<path fill="none" stroke="#5e7468" stroke-width="1.2" d="M435.16,-321.82C424.04,-306.82 411.01,-289.25 399.89,-274.25"/>
<polygon fill="#5e7468" stroke="#5e7468" stroke-width="1.2" points="402.69,-272.15 393.93,-266.2 397.07,-276.32 402.69,-272.15"/>
<text text-anchor="middle" x="470.5" y="-289.4" font-family="Helvetica,sans-Serif" font-size="9.50" fill="#a8c0b0"> yes → exit calibration </text>
</g>
<!-- d_cal3adj -->
<g id="node10" class="node">
<title>d_cal3adj</title>
<path fill="#16202e" stroke="#5ba3d0" d="M679.77,-266.47C679.77,-266.47 564.23,-241.53 564.23,-241.53 558.36,-240.27 558.36,-237.73 564.23,-236.47 564.23,-236.47 679.77,-211.53 679.77,-211.53 685.64,-210.27 697.36,-210.27 703.23,-211.53 703.23,-211.53 818.77,-236.47 818.77,-236.47 824.64,-237.73 824.64,-240.27 818.77,-241.53 818.77,-241.53 703.23,-266.47 703.23,-266.47 697.36,-267.73 685.64,-267.73 679.77,-266.47"/>
<text text-anchor="middle" x="691.5" y="-236.2" font-family="Helvetica,sans-Serif" font-size="11.00" fill="#cfe2f0">T20 daily avg at window end?</text>
</g>
<!-- d_cal3&#45;&gt;d_cal3adj -->
<g id="edge12" class="edge">
<title>d_cal3&#45;&gt;d_cal3adj</title>
<path fill="none" stroke="#5e7468" stroke-width="1.2" d="M513.5,-329.39C552.05,-310.02 603.91,-283.98 641.7,-265.01"/>
<polygon fill="#5e7468" stroke="#5e7468" stroke-width="1.2" points="643.63,-267.96 650.99,-260.34 640.49,-261.7 643.63,-267.96"/>
<text text-anchor="middle" x="606" y="-289.4" font-family="Helvetica,sans-Serif" font-size="9.50" fill="#a8c0b0"> no </text>
</g>
<!-- a_cal3_low -->
<g id="node12" class="node">
<title>a_cal3_low</title>
<path fill="#16202e" stroke="#5ba3d0" d="M745,-139C745,-139 638,-139 638,-139 632,-139 626,-133 626,-127 626,-127 626,-115 626,-115 626,-109 632,-103 638,-103 638,-103 745,-103 745,-103 751,-103 757,-109 757,-115 757,-115 757,-127 757,-127 757,-133 751,-139 745,-139"/>
<text text-anchor="middle" x="691.5" y="-118.2" font-family="Helvetica,sans-Serif" font-size="11.00" fill="#ecf1ed">reduce pulses −20</text>
</g>
<!-- d_cal3adj&#45;&gt;a_cal3_low -->
<g id="edge13" class="edge">
<title>d_cal3adj&#45;&gt;a_cal3_low</title>
<path fill="none" stroke="#5e7468" stroke-width="1.2" d="M691.5,-208.73C691.5,-190.41 691.5,-166.98 691.5,-149.09"/>
<polygon fill="#5e7468" stroke="#5e7468" stroke-width="1.2" points="695,-149.02 691.5,-139.02 688,-149.02 695,-149.02"/>
<text text-anchor="middle" x="714" y="-183.4" font-family="Helvetica,sans-Serif" font-size="9.50" fill="#a8c0b0"> avg &lt; 10mb </text>
</g>
<!-- a_cal3_high -->
<g id="node13" class="node">
<title>a_cal3_high</title>
<path fill="#16202e" stroke="#5ba3d0" d="M979,-142C979,-142 798,-142 798,-142 792,-142 786,-136 786,-130 786,-130 786,-112 786,-112 786,-106 792,-100 798,-100 798,-100 979,-100 979,-100 985,-100 991,-106 991,-112 991,-112 991,-130 991,-130 991,-136 985,-142 979,-142"/>
<text text-anchor="middle" x="888.5" y="-124.2" font-family="Helvetica,sans-Serif" font-size="11.00" fill="#ecf1ed">increase pulses +20</text>
<text text-anchor="middle" x="888.5" y="-112.2" font-family="Helvetica,sans-Serif" font-size="11.00" fill="#ecf1ed">(then +30s duration if still high)</text>
</g>
<!-- d_cal3adj&#45;&gt;a_cal3_high -->
<g id="edge14" class="edge">
<title>d_cal3adj&#45;&gt;a_cal3_high</title>
<path fill="none" stroke="#5e7468" stroke-width="1.2" d="M727.63,-216.72C760.91,-197.13 810.33,-168.03 845.6,-147.26"/>
<polygon fill="#5e7468" stroke="#5e7468" stroke-width="1.2" points="847.4,-150.26 854.25,-142.17 843.85,-144.23 847.4,-150.26"/>
<text text-anchor="middle" x="806" y="-183.4" font-family="Helvetica,sans-Serif" font-size="9.50" fill="#a8c0b0"> avg &gt; 40mb </text>
</g>
<!-- a_opt_low -->
<g id="node14" class="node">
<title>a_opt_low</title>
<path fill="#16202e" stroke="#5ba3d0" d="M119,-42C119,-42 12,-42 12,-42 6,-42 0,-36 0,-30 0,-30 0,-12 0,-12 0,-6 6,0 12,0 12,0 119,0 119,0 125,0 131,-6 131,-12 131,-12 131,-30 131,-30 131,-36 125,-42 119,-42"/>
<text text-anchor="middle" x="65.5" y="-24.2" font-family="Helvetica,sans-Serif" font-size="11.00" fill="#ecf1ed">T20 daily avg &lt; 10mb →</text>
<text text-anchor="middle" x="65.5" y="-12.2" font-family="Helvetica,sans-Serif" font-size="11.00" fill="#ecf1ed">reduce pulses −20</text>
</g>
<!-- d_opt&#45;&gt;a_opt_low -->
<g id="edge18" class="edge">
<title>d_opt&#45;&gt;a_opt_low</title>
<path fill="none" stroke="#5e7468" stroke-width="1.2" d="M214.37,-93.87C183.82,-79.12 145.89,-60.81 115.96,-46.36"/>
<polygon fill="#5e7468" stroke="#5e7468" stroke-width="1.2" points="117.48,-43.21 106.95,-42.01 114.43,-49.51 117.48,-43.21"/>
</g>
<!-- a_opt_high -->
<g id="node15" class="node">
<title>a_opt_high</title>
<path fill="#16202e" stroke="#5ba3d0" d="M365,-42C365,-42 172,-42 172,-42 166,-42 160,-36 160,-30 160,-30 160,-12 160,-12 160,-6 166,0 172,0 172,0 365,0 365,0 371,0 377,-6 377,-12 377,-12 377,-30 377,-30 377,-36 371,-42 365,-42"/>
<text text-anchor="middle" x="268.5" y="-24.2" font-family="Helvetica,sans-Serif" font-size="11.00" fill="#ecf1ed">VWC daily avg &lt; optimal OR T20 daily avg &gt; 40mb →</text>
<text text-anchor="middle" x="268.5" y="-12.2" font-family="Helvetica,sans-Serif" font-size="11.00" fill="#ecf1ed">add pulses +20 &#160;(never +40)</text>
</g>
<!-- d_opt&#45;&gt;a_opt_high -->
<g id="edge19" class="edge">
<title>d_opt&#45;&gt;a_opt_high</title>
<path fill="none" stroke="#5e7468" stroke-width="1.2" d="M268.5,-78.72C268.5,-69.82 268.5,-60.57 268.5,-52.19"/>
<polygon fill="#5e7468" stroke="#5e7468" stroke-width="1.2" points="272,-52.12 268.5,-42.12 265,-52.12 272,-52.12"/>
</g>
<!-- a_opt_ok -->
<g id="node16" class="node">
<title>a_opt_ok</title>
<path fill="#16202e" stroke="#5ba3d0" d="M537,-42C537,-42 418,-42 418,-42 412,-42 406,-36 406,-30 406,-30 406,-12 406,-12 406,-6 412,0 418,0 418,0 537,0 537,0 543,0 549,-6 549,-12 549,-12 549,-30 549,-30 549,-36 543,-42 537,-42"/>
<text text-anchor="middle" x="477.5" y="-24.2" font-family="Helvetica,sans-Serif" font-size="11.00" fill="#ecf1ed">conditions optimal →</text>
<text text-anchor="middle" x="477.5" y="-12.2" font-family="Helvetica,sans-Serif" font-size="11.00" fill="#ecf1ed">no change</text>
</g>
<!-- d_opt&#45;&gt;a_opt_ok -->
<g id="edge20" class="edge">
<title>d_opt&#45;&gt;a_opt_ok</title>
<path fill="none" stroke="#5e7468" stroke-width="1.2" d="M323.41,-94.25C354.98,-79.45 394.4,-60.96 425.47,-46.4"/>
<polygon fill="#5e7468" stroke="#5e7468" stroke-width="1.2" points="427.26,-49.42 434.83,-42.01 424.29,-43.09 427.26,-49.42"/>
</g>
<!-- a_cal3_low&#45;&gt;cal3 -->
<g id="edge15" class="edge">
<title>a_cal3_low&#45;&gt;cal3</title>
<path fill="none" stroke="#5e7468" stroke-width="1.2" stroke-dasharray="5,2" d="M721.69,-139.04C736.43,-146.95 754.59,-156.1 771.5,-163 796.49,-173.19 808.45,-164.11 829.5,-181 860.5,-205.88 871.1,-238.59 845.5,-269 815.29,-304.89 783.14,-265.41 741.5,-287 679.01,-319.41 688.72,-360.95 629.5,-399 608.78,-412.31 584.83,-423.4 561.6,-432.36"/>
<polygon fill="#5e7468" stroke="#5e7468" stroke-width="1.2" points="560.19,-429.15 552.05,-435.94 562.65,-435.7 560.19,-429.15"/>
<text text-anchor="middle" x="774" y="-289.4" font-family="Helvetica,sans-Serif" font-size="9.50" fill="#a8c0b0"> new window </text>
</g>
<!-- a_cal3_high&#45;&gt;cal3 -->
<g id="edge16" class="edge">
<title>a_cal3_high&#45;&gt;cal3</title>
<path fill="none" stroke="#5e7468" stroke-width="1.2" stroke-dasharray="5,2" d="M891.63,-142.14C895.22,-172.05 897.92,-228.94 874.5,-269 815.48,-369.93 687.12,-418.62 588.87,-441.77"/>
<polygon fill="#5e7468" stroke="#5e7468" stroke-width="1.2" points="587.82,-438.41 578.86,-444.06 589.39,-445.24 587.82,-438.41"/>
<text text-anchor="middle" x="894" y="-289.4" font-family="Helvetica,sans-Serif" font-size="9.50" fill="#a8c0b0"> new window </text>
</g>
<!-- a_opt_low&#45;&gt;opt -->
<g id="edge21" class="edge">
<title>a_opt_low&#45;&gt;opt</title>
<path fill="none" stroke="#5e7468" stroke-width="1.2" stroke-dasharray="5,2" d="M131.29,-39.1C136.08,-40.14 140.86,-41.12 145.5,-42 208.91,-53.96 390.88,-30.55 433.5,-79 458.16,-107.03 445.71,-127.72 433.5,-163 428.35,-177.88 418.89,-192.05 409.03,-203.99"/>
<polygon fill="#5e7468" stroke="#5e7468" stroke-width="1.2" points="406.09,-202.03 402.19,-211.88 411.38,-206.62 406.09,-202.03"/>
</g>
<!-- a_opt_high&#45;&gt;opt -->
<g id="edge22" class="edge">
<title>a_opt_high&#45;&gt;opt</title>
<path fill="none" stroke="#5e7468" stroke-width="1.2" stroke-dasharray="5,2" d="M366.39,-42C420.2,-53.99 477.65,-68.82 485.5,-79 516.1,-118.68 507.71,-155.34 472.5,-191 466.81,-196.76 460.28,-201.91 453.35,-206.49"/>
<polygon fill="#5e7468" stroke="#5e7468" stroke-width="1.2" points="451.07,-203.78 444.38,-211.99 454.73,-209.74 451.07,-203.78"/>
</g>
<!-- a_opt_ok&#45;&gt;opt -->
<g id="edge23" class="edge">
<title>a_opt_ok&#45;&gt;opt</title>
<path fill="none" stroke="#5e7468" stroke-width="1.2" stroke-dasharray="5,2" d="M511.85,-42.11C524.57,-51.54 537.58,-64.03 544.5,-79 565.5,-124.44 569.89,-157.71 532.5,-191 521.56,-200.74 508.68,-208.47 495.07,-214.59"/>
<polygon fill="#5e7468" stroke="#5e7468" stroke-width="1.2" points="493.41,-211.49 485.54,-218.58 496.12,-217.95 493.41,-211.49"/>
</g>
<!-- al_40 -->
<g id="node17" class="node">
<title>al_40</title>
<path fill="#3a1a1a" stroke="#e8514e" d="M1990,-1192C1990,-1192 1805,-1192 1805,-1192 1799,-1192 1793,-1186 1793,-1180 1793,-1180 1793,-1162 1793,-1162 1793,-1156 1799,-1150 1805,-1150 1805,-1150 1990,-1150 1990,-1150 1996,-1150 2002,-1156 2002,-1162 2002,-1162 2002,-1180 2002,-1180 2002,-1186 1996,-1192 1990,-1192"/>
<text text-anchor="middle" x="1897.5" y="-1174.2" font-family="Helvetica,sans-Serif" font-size="11.00" fill="#ffd9d9">T40 daily avg &lt; 10mb</text>
<text text-anchor="middle" x="1897.5" y="-1162.2" font-family="Helvetica,sans-Serif" font-size="11.00" fill="#ffd9d9">→ RED · fires until acknowledged</text>
</g>
<!-- al_1mb -->
<g id="node18" class="node">
<title>al_1mb</title>
<path fill="#2a2418" stroke="#e8a33d" d="M1752,-1192C1752,-1192 1645,-1192 1645,-1192 1639,-1192 1633,-1186 1633,-1180 1633,-1180 1633,-1162 1633,-1162 1633,-1156 1639,-1150 1645,-1150 1645,-1150 1752,-1150 1752,-1150 1758,-1150 1764,-1156 1764,-1162 1764,-1162 1764,-1180 1764,-1180 1764,-1186 1758,-1192 1752,-1192"/>
<text text-anchor="middle" x="1698.5" y="-1174.2" font-family="Helvetica,sans-Serif" font-size="11.00" fill="#ffe9c7">20cm &lt; 1mb</text>
<text text-anchor="middle" x="1698.5" y="-1162.2" font-family="Helvetica,sans-Serif" font-size="11.00" fill="#ffe9c7">→ YELLOW (onset)</text>
</g>
<!-- al_1mb3 -->
<g id="node19" class="node">
<title>al_1mb3</title>
<path fill="#3a1a1a" stroke="#e8514e" d="M1591.5,-1192C1591.5,-1192 1457.5,-1192 1457.5,-1192 1451.5,-1192 1445.5,-1186 1445.5,-1180 1445.5,-1180 1445.5,-1162 1445.5,-1162 1445.5,-1156 1451.5,-1150 1457.5,-1150 1457.5,-1150 1591.5,-1150 1591.5,-1150 1597.5,-1150 1603.5,-1156 1603.5,-1162 1603.5,-1162 1603.5,-1180 1603.5,-1180 1603.5,-1186 1597.5,-1192 1591.5,-1192"/>
<text text-anchor="middle" x="1524.5" y="-1174.2" font-family="Helvetica,sans-Serif" font-size="11.00" fill="#ffd9d9">20cm &lt; 1mb for 3 days</text>
<text text-anchor="middle" x="1524.5" y="-1162.2" font-family="Helvetica,sans-Serif" font-size="11.00" fill="#ffd9d9">→ RED</text>
</g>
<!-- al_discharge -->
<g id="node20" class="node">
<title>al_discharge</title>
<path fill="#3a1a1a" stroke="#e8514e" d="M1404.5,-1192C1404.5,-1192 1248.5,-1192 1248.5,-1192 1242.5,-1192 1236.5,-1186 1236.5,-1180 1236.5,-1180 1236.5,-1162 1236.5,-1162 1236.5,-1156 1242.5,-1150 1248.5,-1150 1248.5,-1150 1404.5,-1150 1404.5,-1150 1410.5,-1150 1416.5,-1156 1416.5,-1162 1416.5,-1162 1416.5,-1180 1416.5,-1180 1416.5,-1186 1410.5,-1192 1404.5,-1192"/>
<text text-anchor="middle" x="1326.5" y="-1174.2" font-family="Helvetica,sans-Serif" font-size="11.00" fill="#ffd9d9">discharge mismatch &gt; 20%</text>
<text text-anchor="middle" x="1326.5" y="-1162.2" font-family="Helvetica,sans-Serif" font-size="11.00" fill="#ffd9d9">→ RED (checked every 2h)</text>
</g>
<!-- sa_cal1 -->
<g id="node21" class="node">
<title>sa_cal1</title>
<path fill="#3a1a1a" stroke="#e8514e" d="M2930.5,-1192C2930.5,-1192 2768.5,-1192 2768.5,-1192 2762.5,-1192 2756.5,-1186 2756.5,-1180 2756.5,-1180 2756.5,-1162 2756.5,-1162 2756.5,-1156 2762.5,-1150 2768.5,-1150 2768.5,-1150 2930.5,-1150 2930.5,-1150 2936.5,-1150 2942.5,-1156 2942.5,-1162 2942.5,-1162 2942.5,-1180 2942.5,-1180 2942.5,-1186 2936.5,-1192 2930.5,-1192"/>
<text text-anchor="middle" x="2849.5" y="-1174.2" font-family="Helvetica,sans-Serif" font-size="11.00" fill="#ffd9d9">Cal1: T20 daily avg not &lt; 40mb</text>
<text text-anchor="middle" x="2849.5" y="-1162.2" font-family="Helvetica,sans-Serif" font-size="11.00" fill="#ffd9d9">after 5 days → RED (re&#45;fires)</text>
</g>
<!-- sa_cal2a -->
<g id="node22" class="node">
<title>sa_cal2a</title>
<path fill="#3a1a1a" stroke="#e8514e" d="M2715,-1192C2715,-1192 2594,-1192 2594,-1192 2588,-1192 2582,-1186 2582,-1180 2582,-1180 2582,-1162 2582,-1162 2582,-1156 2588,-1150 2594,-1150 2594,-1150 2715,-1150 2715,-1150 2721,-1150 2727,-1156 2727,-1162 2727,-1162 2727,-1180 2727,-1180 2727,-1186 2721,-1192 2715,-1192"/>
<text text-anchor="middle" x="2654.5" y="-1174.2" font-family="Helvetica,sans-Serif" font-size="11.00" fill="#ffd9d9">Cal2: T20 daily avg no rise &gt; 40mb</text>
<text text-anchor="middle" x="2654.5" y="-1162.2" font-family="Helvetica,sans-Serif" font-size="11.00" fill="#ffd9d9">in 14 days → RED</text>
</g>
<!-- sa_cal2b -->
<g id="node23" class="node">
<title>sa_cal2b</title>
<path fill="#3a1a1a" stroke="#e8514e" d="M2540.5,-1192C2540.5,-1192 2412.5,-1192 2412.5,-1192 2406.5,-1192 2400.5,-1186 2400.5,-1180 2400.5,-1180 2400.5,-1162 2400.5,-1162 2400.5,-1156 2406.5,-1150 2412.5,-1150 2412.5,-1150 2540.5,-1150 2540.5,-1150 2546.5,-1150 2552.5,-1156 2552.5,-1162 2552.5,-1162 2552.5,-1180 2552.5,-1180 2552.5,-1186 2546.5,-1192 2540.5,-1192"/>
<text text-anchor="middle" x="2476.5" y="-1174.2" font-family="Helvetica,sans-Serif" font-size="11.00" fill="#ffd9d9">Cal2: T20 daily avg dropped &lt; 10mb</text>
<text text-anchor="middle" x="2476.5" y="-1162.2" font-family="Helvetica,sans-Serif" font-size="11.00" fill="#ffd9d9">again → RED</text>
</g>
<!-- sa_cal3 -->
<g id="node24" class="node">
<title>sa_cal3</title>
<path fill="#2a2418" stroke="#e8a33d" d="M2359.5,-1192C2359.5,-1192 2217.5,-1192 2217.5,-1192 2211.5,-1192 2205.5,-1186 2205.5,-1180 2205.5,-1180 2205.5,-1162 2205.5,-1162 2205.5,-1156 2211.5,-1150 2217.5,-1150 2217.5,-1150 2359.5,-1150 2359.5,-1150 2365.5,-1150 2371.5,-1156 2371.5,-1162 2371.5,-1162 2371.5,-1180 2371.5,-1180 2371.5,-1186 2365.5,-1192 2359.5,-1192"/>
<text text-anchor="middle" x="2288.5" y="-1174.2" font-family="Helvetica,sans-Serif" font-size="11.00" fill="#ffe9c7">Cal3: T20 daily avg &lt; 10mb or &gt; 40mb</text>
<text text-anchor="middle" x="2288.5" y="-1162.2" font-family="Helvetica,sans-Serif" font-size="11.00" fill="#ffe9c7">for 3 days → YELLOW</text>
</g>
<!-- sa_vwc -->
<g id="node25" class="node">
<title>sa_vwc</title>
<path fill="#3a1a1a" stroke="#e8514e" d="M2164,-1192C2164,-1192 2043,-1192 2043,-1192 2037,-1192 2031,-1186 2031,-1180 2031,-1180 2031,-1162 2031,-1162 2031,-1156 2037,-1150 2043,-1150 2043,-1150 2164,-1150 2164,-1150 2170,-1150 2176,-1156 2176,-1162 2176,-1162 2176,-1180 2176,-1180 2176,-1186 2170,-1192 2164,-1192"/>
<text text-anchor="middle" x="2103.5" y="-1174.2" font-family="Helvetica,sans-Serif" font-size="11.00" fill="#ffd9d9">Cal3: VWC not +10%</text>
<text text-anchor="middle" x="2103.5" y="-1162.2" font-family="Helvetica,sans-Serif" font-size="11.00" fill="#ffd9d9">in a week → RED</text>
</g>
<!-- ov_full -->
<g id="node27" class="node">
<title>ov_full</title>
<path fill="#241a2e" stroke="#9b7fe0" d="M981.5,-1071C981.5,-1071 879.5,-1071 879.5,-1071 873.5,-1071 867.5,-1065 867.5,-1059 867.5,-1059 867.5,-1041 867.5,-1041 867.5,-1035 873.5,-1029 879.5,-1029 879.5,-1029 981.5,-1029 981.5,-1029 987.5,-1029 993.5,-1035 993.5,-1041 993.5,-1041 993.5,-1059 993.5,-1059 993.5,-1065 987.5,-1071 981.5,-1071"/>
<text text-anchor="middle" x="930.5" y="-1053.2" font-family="Helvetica,sans-Serif" font-size="11.00" fill="#e5d9f5">FULL MANUAL</text>
<text text-anchor="middle" x="930.5" y="-1041.2" font-family="Helvetica,sans-Serif" font-size="11.00" fill="#e5d9f5">auto logic paused</text>
</g>
<!-- ov_exec&#45;&gt;ov_full -->
<g id="edge24" class="edge">
<title>ov_exec&#45;&gt;ov_full</title>
<path fill="none" stroke="#9b7fe0" stroke-width="1.2" d="M1055.95,-1137.8C1028.33,-1118.69 993.78,-1094.78 967.94,-1076.9"/>
<polygon fill="#9b7fe0" stroke="#9b7fe0" stroke-width="1.2" points="969.74,-1073.89 959.53,-1071.08 965.76,-1079.65 969.74,-1073.89"/>
<text text-anchor="middle" x="1048" y="-1112.4" font-family="Helvetica,sans-Serif" font-size="9.50" fill="#a8c0b0"> mode A </text>
</g>
<!-- ov_semi -->
<g id="node28" class="node">
<title>ov_semi</title>
<path fill="#241a2e" stroke="#9b7fe0" d="M1168.5,-1077C1168.5,-1077 1034.5,-1077 1034.5,-1077 1028.5,-1077 1022.5,-1071 1022.5,-1065 1022.5,-1065 1022.5,-1035 1022.5,-1035 1022.5,-1029 1028.5,-1023 1034.5,-1023 1034.5,-1023 1168.5,-1023 1168.5,-1023 1174.5,-1023 1180.5,-1029 1180.5,-1035 1180.5,-1035 1180.5,-1065 1180.5,-1065 1180.5,-1071 1174.5,-1077 1168.5,-1077"/>
<text text-anchor="middle" x="1101.5" y="-1059.2" font-family="Helvetica,sans-Serif" font-size="11.00" fill="#e5d9f5">SEMI&#45;AUTO</text>
<text text-anchor="middle" x="1101.5" y="-1047.2" font-family="Helvetica,sans-Serif" font-size="11.00" fill="#e5d9f5">algorithm runs from</text>
<text text-anchor="middle" x="1101.5" y="-1035.2" font-family="Helvetica,sans-Serif" font-size="11.00" fill="#e5d9f5">manual baseline (fixed)</text>
</g>
<!-- ov_exec&#45;&gt;ov_semi -->
<g id="edge25" class="edge">
<title>ov_exec&#45;&gt;ov_semi</title>
<path fill="none" stroke="#9b7fe0" stroke-width="1.2" d="M1102.23,-1137.8C1102.1,-1122.21 1101.94,-1103.44 1101.81,-1087.34"/>
<polygon fill="#9b7fe0" stroke="#9b7fe0" stroke-width="1.2" points="1105.3,-1087.18 1101.72,-1077.21 1098.3,-1087.24 1105.3,-1087.18"/>
<text text-anchor="middle" x="1123" y="-1112.4" font-family="Helvetica,sans-Serif" font-size="9.50" fill="#a8c0b0"> mode B </text>
</g>
<!-- ov_exit_last -->
<g id="node29" class="node">
<title>ov_exit_last</title>
<path fill="#241a2e" stroke="#9b7fe0" d="M948.5,-956C948.5,-956 814.5,-956 814.5,-956 808.5,-956 802.5,-950 802.5,-944 802.5,-944 802.5,-926 802.5,-926 802.5,-920 808.5,-914 814.5,-914 814.5,-914 948.5,-914 948.5,-914 954.5,-914 960.5,-920 960.5,-926 960.5,-926 960.5,-944 960.5,-944 960.5,-950 954.5,-956 948.5,-956"/>
<text text-anchor="middle" x="881.5" y="-938.2" font-family="Helvetica,sans-Serif" font-size="11.00" fill="#e5d9f5">Exit: resume LAST auto</text>
<text text-anchor="middle" x="881.5" y="-926.2" font-family="Helvetica,sans-Serif" font-size="11.00" fill="#e5d9f5">→ restore snapshot</text>
</g>
<!-- ov_full&#45;&gt;ov_exit_last -->
<g id="edge26" class="edge">
<title>ov_full&#45;&gt;ov_exit_last</title>
<path fill="none" stroke="#9b7fe0" stroke-width="1.2" stroke-dasharray="1,5" d="M921.74,-1028.8C914.08,-1011.12 902.85,-985.23 894.2,-965.28"/>
<polygon fill="#9b7fe0" stroke="#9b7fe0" stroke-width="1.2" points="897.37,-963.81 890.18,-956.03 890.95,-966.59 897.37,-963.81"/>
</g>
<!-- ov_exit_mod -->
<g id="node30" class="node">
<title>ov_exit_mod</title>
<path fill="#241a2e" stroke="#9b7fe0" d="M1195.5,-956C1195.5,-956 1001.5,-956 1001.5,-956 995.5,-956 989.5,-950 989.5,-944 989.5,-944 989.5,-926 989.5,-926 989.5,-920 995.5,-914 1001.5,-914 1001.5,-914 1195.5,-914 1195.5,-914 1201.5,-914 1207.5,-920 1207.5,-926 1207.5,-926 1207.5,-944 1207.5,-944 1207.5,-950 1201.5,-956 1195.5,-956"/>
<text text-anchor="middle" x="1098.5" y="-938.2" font-family="Helvetica,sans-Serif" font-size="11.00" fill="#e5d9f5">Exit: resume MODIFIED auto</text>
<text text-anchor="middle" x="1098.5" y="-926.2" font-family="Helvetica,sans-Serif" font-size="11.00" fill="#e5d9f5">→ keep manual values as baseline</text>
</g>
<!-- ov_full&#45;&gt;ov_exit_mod -->
<g id="edge27" class="edge">
<title>ov_full&#45;&gt;ov_exit_mod</title>
<path fill="none" stroke="#9b7fe0" stroke-width="1.2" stroke-dasharray="1,5" d="M960.54,-1028.8C988.37,-1010.08 1029.91,-982.14 1060.13,-961.81"/>
<polygon fill="#9b7fe0" stroke="#9b7fe0" stroke-width="1.2" points="1062.38,-964.51 1068.72,-956.03 1058.47,-958.7 1062.38,-964.51"/>
</g>
<!-- ov_semi&#45;&gt;ov_exit_last -->
<g id="edge28" class="edge">
<title>ov_semi&#45;&gt;ov_exit_last</title>
<path fill="none" stroke="#9b7fe0" stroke-width="1.2" stroke-dasharray="1,5" d="M1050.75,-1022.93C1014.41,-1004.27 965.76,-979.28 929.95,-960.89"/>
<polygon fill="#9b7fe0" stroke="#9b7fe0" stroke-width="1.2" points="931.17,-957.58 920.68,-956.12 927.97,-963.81 931.17,-957.58"/>
</g>
<!-- ov_semi&#45;&gt;ov_exit_mod -->
<g id="edge29" class="edge">
<title>ov_semi&#45;&gt;ov_exit_mod</title>
<path fill="none" stroke="#9b7fe0" stroke-width="1.2" stroke-dasharray="1,5" d="M1100.8,-1022.79C1100.36,-1005.95 1099.77,-984 1099.31,-966.39"/>
<polygon fill="#9b7fe0" stroke="#9b7fe0" stroke-width="1.2" points="1102.8,-965.98 1099.03,-956.07 1095.8,-966.16 1102.8,-965.98"/>
</g>
<!-- ov_freeze -->
<g id="node31" class="node">
<title>ov_freeze</title>
<path fill="#16202e" stroke="#5ba3d0" d="M957,-1198C957,-1198 800,-1198 800,-1198 794,-1198 788,-1192 788,-1186 788,-1186 788,-1156 788,-1156 788,-1150 794,-1144 800,-1144 800,-1144 957,-1144 957,-1144 963,-1144 969,-1150 969,-1156 969,-1156 969,-1186 969,-1186 969,-1192 963,-1198 957,-1198"/>
<text text-anchor="middle" x="878.5" y="-1180.2" font-family="Helvetica,sans-Serif" font-size="11.00" fill="#cfe2f0">FREEZE</text>
<text text-anchor="middle" x="878.5" y="-1168.2" font-family="Helvetica,sans-Serif" font-size="11.00" fill="#cfe2f0">tap closed (0 pulses)</text>
<text text-anchor="middle" x="878.5" y="-1156.2" font-family="Helvetica,sans-Serif" font-size="11.00" fill="#cfe2f0">timers + logic keep running</text>
</g>
<!-- ov_stuck -->
<g id="node32" class="node">
<title>ov_stuck</title>
<path fill="#2a2418" stroke="#e8a33d" d="M746.5,-1192C746.5,-1192 630.5,-1192 630.5,-1192 624.5,-1192 618.5,-1186 618.5,-1180 618.5,-1180 618.5,-1162 618.5,-1162 618.5,-1156 624.5,-1150 630.5,-1150 630.5,-1150 746.5,-1150 746.5,-1150 752.5,-1150 758.5,-1156 758.5,-1162 758.5,-1162 758.5,-1180 758.5,-1180 758.5,-1186 752.5,-1192 746.5,-1192"/>
<text text-anchor="middle" x="688.5" y="-1174.2" font-family="Helvetica,sans-Serif" font-size="11.00" fill="#ffe9c7">in manual &gt; 3 days</text>
<text text-anchor="middle" x="688.5" y="-1162.2" font-family="Helvetica,sans-Serif" font-size="11.00" fill="#ffe9c7">→ YELLOW reminder</text>
</g>
</g>
</svg>
