<?xml version="1.0" encoding="UTF-8" standalone="no"?>
<!DOCTYPE svg PUBLIC "-//W3C//DTD SVG 1.1//EN"
 "http://www.w3.org/Graphics/SVG/1.1/DTD/svg11.dtd">
<!-- Generated by graphviz version 2.43.0 (0)
 -->
<!-- Title: Agrinoze Pages: 1 -->
<svg width="2027pt" height="799pt"
 viewBox="0.00 0.00 2027.00 799.00" xmlns="http://www.w3.org/2000/svg" xmlns:xlink="http://www.w3.org/1999/xlink">
<g id="graph0" class="graph" transform="scale(1 1) rotate(0) translate(4 795)">
<title>Agrinoze</title>
<polygon fill="#0e1411" stroke="transparent" points="-4,4 -4,-795 2023,-795 2023,4 -4,4"/>
<text text-anchor="start" x="733" y="-772" font-family="Helvetica,sans-Serif" font-weight="bold" font-size="20.00" fill="#ecf1ed">Agrinoze Smart Irrigation — System Architecture (PRD 19.6.26)</text>
<text text-anchor="start" x="761.5" y="-759.2" font-family="Helvetica,sans-Serif" font-size="11.00" fill="#8fa396">Green = built &amp; verified &#160;&#160;· &#160;&#160;Amber dashed = planned &#160;&#160;· &#160;&#160;Blue dashed = future hardware &#160;&#160;· &#160;&#160;Engine uses daily avg of 144 readings/day (1 per 10 min) per sensor — PRD 19.6.26</text>
<text text-anchor="start" x="1007" y="-745.8" font-family="Helvetica,sans-Serif" font-size="14.00"> </text>
<g id="clust1" class="cluster">
<title>cluster_users</title>
<path fill="#15101c" stroke="#3a2d4a" d="M337,-655C337,-655 678,-655 678,-655 684,-655 690,-661 690,-667 690,-667 690,-718 690,-718 690,-724 684,-730 678,-730 678,-730 337,-730 337,-730 331,-730 325,-724 325,-718 325,-718 325,-667 325,-667 325,-661 331,-655 337,-655"/>
<text text-anchor="start" x="484.5" y="-717.4" font-family="Helvetica,sans-Serif" font-weight="bold" font-size="12.00" fill="#9b7fe0">USERS</text>
</g>
<g id="clust2" class="cluster">
<title>cluster_frontend</title>
<path fill="#0f1a14" stroke="#1d5e40" d="M71,-559C71,-559 728,-559 728,-559 734,-559 740,-565 740,-571 740,-571 740,-622 740,-622 740,-628 734,-634 728,-634 728,-634 71,-634 71,-634 65,-634 59,-628 59,-622 59,-622 59,-571 59,-571 59,-565 65,-559 71,-559"/>
<text text-anchor="start" x="268" y="-621.4" font-family="Helvetica,sans-Serif" font-weight="bold" font-size="12.00" fill="#46b97a">FRONTEND — React &#160;(BUILT: simulator)</text>
</g>
<g id="clust3" class="cluster">
<title>cluster_api</title>
<path fill="#1a160e" stroke="#e8a33d" stroke-dasharray="5,2" d="M20,-367C20,-367 300,-367 300,-367 306,-367 312,-373 312,-379 312,-379 312,-526 312,-526 312,-532 306,-538 300,-538 300,-538 20,-538 20,-538 14,-538 8,-532 8,-526 8,-526 8,-379 8,-379 8,-373 14,-367 20,-367"/>
<text text-anchor="start" x="16" y="-525.4" font-family="Helvetica,sans-Serif" font-weight="bold" font-size="12.00" fill="#e8a33d">API LAYER — FastAPI &#160;(PLANNED: Phase 3)</text>
</g>
<g id="clust4" class="cluster">
<title>cluster_core</title>
<path fill="#0f1a14" stroke="#1d5e40" d="M332,-271C332,-271 983,-271 983,-271 989,-271 995,-277 995,-283 995,-283 995,-430 995,-430 995,-436 989,-442 983,-442 983,-442 332,-442 332,-442 326,-442 320,-436 320,-430 320,-430 320,-283 320,-283 320,-277 326,-271 332,-271"/>
<text text-anchor="start" x="487" y="-429.4" font-family="Helvetica,sans-Serif" font-weight="bold" font-size="12.00" fill="#46b97a">ALGORITHM ENGINE — Python &#160;(BUILT + VERIFIED)</text>
</g>
<g id="clust5" class="cluster">
<title>cluster_data</title>
<path fill="#1a160e" stroke="#e8a33d" stroke-dasharray="5,2" d="M1016,-271C1016,-271 1472,-271 1472,-271 1478,-271 1484,-277 1484,-283 1484,-283 1484,-334 1484,-334 1484,-340 1478,-346 1472,-346 1472,-346 1016,-346 1016,-346 1010,-346 1004,-340 1004,-334 1004,-334 1004,-283 1004,-283 1004,-277 1010,-271 1016,-271"/>
<text text-anchor="start" x="1080" y="-333.4" font-family="Helvetica,sans-Serif" font-weight="bold" font-size="12.00" fill="#e8a33d">DATA LAYER — PostgreSQL &#160;(PLANNED: Phase 2)</text>
</g>
<g id="clust6" class="cluster">
<title>cluster_adapter</title>
<path fill="#12110f" stroke="#5e7468" d="M1504,-183C1504,-183 1884,-183 1884,-183 1890,-183 1896,-189 1896,-195 1896,-195 1896,-334 1896,-334 1896,-340 1890,-346 1884,-346 1884,-346 1504,-346 1504,-346 1498,-346 1492,-340 1492,-334 1492,-334 1492,-195 1492,-195 1492,-189 1498,-183 1504,-183"/>
<text text-anchor="start" x="1527" y="-333.4" font-family="Helvetica,sans-Serif" font-weight="bold" font-size="12.00" fill="#ecf1ed">CONTROLLER ADAPTER &#160;(the key swap boundary)</text>
</g>
<g id="clust7" class="cluster">
<title>cluster_field</title>
<path fill="#101720" stroke="#5ba3d0" stroke-dasharray="5,2" d="M1524,-8C1524,-8 1999,-8 1999,-8 2005,-8 2011,-14 2011,-20 2011,-20 2011,-150 2011,-150 2011,-156 2005,-162 1999,-162 1999,-162 1524,-162 1524,-162 1518,-162 1512,-156 1512,-150 1512,-150 1512,-20 1512,-20 1512,-14 1518,-8 1524,-8"/>
<text text-anchor="start" x="1665" y="-149.4" font-family="Helvetica,sans-Serif" font-weight="bold" font-size="12.00" fill="#5ba3d0">FIELD HARDWARE &#160;(FUTURE)</text>
</g>
<!-- agro -->
<g id="node1" class="node">
<title>agro</title>
<path fill="#241a2e" stroke="#9b7fe0" d="M501,-701C501,-701 345,-701 345,-701 339,-701 333,-695 333,-689 333,-689 333,-675 333,-675 333,-669 339,-663 345,-663 345,-663 501,-663 501,-663 507,-663 513,-669 513,-675 513,-675 513,-689 513,-689 513,-695 507,-701 501,-701"/>
<text text-anchor="middle" x="423" y="-685.2" font-family="Helvetica,sans-Serif" font-size="11.00" fill="#ecf1ed">Master Agronomist</text>
<text text-anchor="middle" x="423" y="-673.2" font-family="Helvetica,sans-Serif" font-size="11.00" fill="#ecf1ed">full control · remote · global</text>
</g>
<!-- ctrl -->
<g id="node3" class="node">
<title>ctrl</title>
<path fill="#1d5e40" stroke="#46b97a" d="M267.5,-605C267.5,-605 78.5,-605 78.5,-605 72.5,-605 66.5,-599 66.5,-593 66.5,-593 66.5,-579 66.5,-579 66.5,-573 72.5,-567 78.5,-567 78.5,-567 267.5,-567 267.5,-567 273.5,-567 279.5,-573 279.5,-579 279.5,-579 279.5,-593 279.5,-593 279.5,-599 273.5,-605 267.5,-605"/>
<text text-anchor="middle" x="173" y="-589.2" font-family="Helvetica,sans-Serif" font-size="11.00" fill="#ecf1ed">Control Screen</text>
<text text-anchor="middle" x="173" y="-577.2" font-family="Helvetica,sans-Serif" font-size="11.00" fill="#ecf1ed">stages · daily avg table · graphs · alerts</text>
</g>
<!-- agro&#45;&gt;ctrl -->
<g id="edge1" class="edge">
<title>agro&#45;&gt;ctrl</title>
<path fill="none" stroke="#5e7468" stroke-width="1.1" d="M371.95,-662.89C350.84,-655.33 325.89,-646.29 302.54,-637.58"/>
<polygon fill="#5e7468" stroke="#5e7468" stroke-width="1.1" points="303.59,-634.23 293,-634 301.14,-640.79 303.59,-634.23"/>
</g>
<!-- ovr -->
<g id="node4" class="node">
<title>ovr</title>
<path fill="#1d5e40" stroke="#46b97a" d="M529,-605C529,-605 317,-605 317,-605 311,-605 305,-599 305,-593 305,-593 305,-579 305,-579 305,-573 311,-567 317,-567 317,-567 529,-567 529,-567 535,-567 541,-573 541,-579 541,-579 541,-593 541,-593 541,-599 535,-605 529,-605"/>
<text text-anchor="middle" x="423" y="-589.2" font-family="Helvetica,sans-Serif" font-size="11.00" fill="#ecf1ed">Manual Override UI</text>
<text text-anchor="middle" x="423" y="-577.2" font-family="Helvetica,sans-Serif" font-size="11.00" fill="#ecf1ed">2 entry modes · 2 exit modes · freeze</text>
</g>
<!-- agro&#45;&gt;ovr -->
<g id="edge2" class="edge">
<title>agro&#45;&gt;ovr</title>
<path fill="none" stroke="#5e7468" stroke-width="1.1" d="M423,-662.88C423,-649.35 423,-630.62 423,-615.15"/>
<polygon fill="#5e7468" stroke="#5e7468" stroke-width="1.1" points="426.5,-615.07 423,-605.07 419.5,-615.07 426.5,-615.07"/>
</g>
<!-- farmer -->
<g id="node2" class="node">
<title>farmer</title>
<path fill="#241a2e" stroke="#9b7fe0" d="M669.5,-701C669.5,-701 550.5,-701 550.5,-701 544.5,-701 538.5,-695 538.5,-689 538.5,-689 538.5,-675 538.5,-675 538.5,-669 544.5,-663 550.5,-663 550.5,-663 669.5,-663 669.5,-663 675.5,-663 681.5,-669 681.5,-675 681.5,-675 681.5,-689 681.5,-689 681.5,-695 675.5,-701 669.5,-701"/>
<text text-anchor="middle" x="610" y="-685.2" font-family="Helvetica,sans-Serif" font-size="11.00" fill="#ecf1ed">On&#45;site Farmer</text>
<text text-anchor="middle" x="610" y="-673.2" font-family="Helvetica,sans-Serif" font-size="11.00" fill="#ecf1ed">view&#45;only monitoring</text>
</g>
<!-- mon -->
<g id="node5" class="node">
<title>mon</title>
<path fill="#1d5e40" stroke="#46b97a" d="M719.5,-605C719.5,-605 578.5,-605 578.5,-605 572.5,-605 566.5,-599 566.5,-593 566.5,-593 566.5,-579 566.5,-579 566.5,-573 572.5,-567 578.5,-567 578.5,-567 719.5,-567 719.5,-567 725.5,-567 731.5,-573 731.5,-579 731.5,-579 731.5,-593 731.5,-593 731.5,-599 725.5,-605 719.5,-605"/>
<text text-anchor="middle" x="649" y="-589.2" font-family="Helvetica,sans-Serif" font-size="11.00" fill="#ecf1ed">Monitoring Screen</text>
<text text-anchor="middle" x="649" y="-577.2" font-family="Helvetica,sans-Serif" font-size="11.00" fill="#ecf1ed">read&#45;only status + alerts</text>
</g>
<!-- farmer&#45;&gt;mon -->
<g id="edge3" class="edge">
<title>farmer&#45;&gt;mon</title>
<path fill="none" stroke="#5e7468" stroke-width="1.1" d="M617.52,-662.88C623.18,-649.22 631.05,-630.26 637.5,-614.71"/>
<polygon fill="#5e7468" stroke="#5e7468" stroke-width="1.1" points="640.9,-615.65 641.5,-605.07 634.44,-612.96 640.9,-615.65"/>
</g>
<!-- rest -->
<g id="node6" class="node">
<title>rest</title>
<path fill="#2a2418" stroke="#e8a33d" d="M292,-509C292,-509 54,-509 54,-509 48,-509 42,-503 42,-497 42,-497 42,-483 42,-483 42,-477 48,-471 54,-471 54,-471 292,-471 292,-471 298,-471 304,-477 304,-483 304,-483 304,-497 304,-497 304,-503 298,-509 292,-509"/>
<text text-anchor="middle" x="173" y="-493.2" font-family="Helvetica,sans-Serif" font-size="11.00" fill="#ecf1ed">REST endpoints</text>
<text text-anchor="middle" x="173" y="-481.2" font-family="Helvetica,sans-Serif" font-size="11.00" fill="#ecf1ed">state · history · program · alerts · override</text>
</g>
<!-- ctrl&#45;&gt;rest -->
<g id="edge4" class="edge">
<title>ctrl&#45;&gt;rest</title>
<path fill="none" stroke="#5e7468" stroke-width="1.1" d="M173,-556.78C173,-554 173,-551.11 173,-548.16"/>
<polygon fill="#5e7468" stroke="#5e7468" stroke-width="1.1" points="169.5,-549 173,-559 176.5,-549 169.5,-549"/>
<polygon fill="#5e7468" stroke="#5e7468" stroke-width="1.1" points="176.5,-548 173,-538 169.5,-548 176.5,-548"/>
</g>
<!-- auth -->
<g id="node7" class="node">
<title>auth</title>
<path fill="#2a2418" stroke="#e8a33d" d="M234,-413C234,-413 112,-413 112,-413 106,-413 100,-407 100,-401 100,-401 100,-387 100,-387 100,-381 106,-375 112,-375 112,-375 234,-375 234,-375 240,-375 246,-381 246,-387 246,-387 246,-401 246,-401 246,-407 240,-413 234,-413"/>
<text text-anchor="middle" x="173" y="-397.2" font-family="Helvetica,sans-Serif" font-size="11.00" fill="#ecf1ed">Auth &amp; roles</text>
<text text-anchor="middle" x="173" y="-385.2" font-family="Helvetica,sans-Serif" font-size="11.00" fill="#ecf1ed">agronomist vs farmer</text>
</g>
<!-- rest&#45;&gt;auth -->
<g id="edge5" class="edge">
<title>rest&#45;&gt;auth</title>
<path fill="none" stroke="#5e7468" stroke-width="1.1" d="M173,-470.88C173,-457.35 173,-438.62 173,-423.15"/>
<polygon fill="#5e7468" stroke="#5e7468" stroke-width="1.1" points="176.5,-423.07 173,-413.07 169.5,-423.07 176.5,-423.07"/>
</g>
<!-- sm -->
<g id="node8" class="node">
<title>sm</title>
<path fill="#1d5e40" stroke="#46b97a" d="M879,-413C879,-413 659,-413 659,-413 653,-413 647,-407 647,-401 647,-401 647,-387 647,-387 647,-381 653,-375 659,-375 659,-375 879,-375 879,-375 885,-375 891,-381 891,-387 891,-387 891,-401 891,-401 891,-407 885,-413 879,-413"/>
<text text-anchor="middle" x="769" y="-397.2" font-family="Helvetica,sans-Serif" font-size="11.00" fill="#ecf1ed">Stage Machine (Sensation)</text>
<text text-anchor="middle" x="769" y="-385.2" font-family="Helvetica,sans-Serif" font-size="11.00" fill="#ecf1ed">Sensation algo · decisions use daily sensor avgs</text>
</g>
<!-- rest&#45;&gt;sm -->
<g id="edge6" class="edge">
<title>rest&#45;&gt;sm</title>
<path fill="none" stroke="#5e7468" stroke-width="1.1" d="M297.26,-469.4C345.44,-461.8 402.94,-452.73 460.95,-443.59"/>
<polygon fill="#5e7468" stroke="#5e7468" stroke-width="1.1" points="296.54,-465.97 287.21,-470.99 297.63,-472.89 296.54,-465.97"/>
<polygon fill="#5e7468" stroke="#5e7468" stroke-width="1.1" points="461.69,-447.01 471.02,-442 460.6,-440.1 461.69,-447.01"/>
</g>
<!-- ovreng -->
<g id="node9" class="node">
<title>ovreng</title>
<path fill="#1d5e40" stroke="#46b97a" d="M533.5,-317C533.5,-317 340.5,-317 340.5,-317 334.5,-317 328.5,-311 328.5,-305 328.5,-305 328.5,-291 328.5,-291 328.5,-285 334.5,-279 340.5,-279 340.5,-279 533.5,-279 533.5,-279 539.5,-279 545.5,-285 545.5,-291 545.5,-291 545.5,-305 545.5,-305 545.5,-311 539.5,-317 533.5,-317"/>
<text text-anchor="middle" x="437" y="-301.2" font-family="Helvetica,sans-Serif" font-size="11.00" fill="#ecf1ed">Override Engine</text>
<text text-anchor="middle" x="437" y="-289.2" font-family="Helvetica,sans-Serif" font-size="11.00" fill="#ecf1ed">snapshot · cycle&#45;boundary · revert</text>
</g>
<!-- sm&#45;&gt;ovreng -->
<g id="edge7" class="edge">
<title>sm&#45;&gt;ovreng</title>
<path fill="none" stroke="#46b97a" stroke-width="1.1" stroke-dasharray="5,2" d="M673.67,-374.96C637.17,-367.22 595.35,-357.34 558,-346 531.15,-337.85 501.8,-326.51 478.73,-317.01"/>
</g>
<!-- alerts -->
<g id="node10" class="node">
<title>alerts</title>
<path fill="#1d5e40" stroke="#46b97a" d="M763.5,-317C763.5,-317 582.5,-317 582.5,-317 576.5,-317 570.5,-311 570.5,-305 570.5,-305 570.5,-291 570.5,-291 570.5,-285 576.5,-279 582.5,-279 582.5,-279 763.5,-279 763.5,-279 769.5,-279 775.5,-285 775.5,-291 775.5,-291 775.5,-305 775.5,-305 775.5,-311 769.5,-317 763.5,-317"/>
<text text-anchor="middle" x="673" y="-301.2" font-family="Helvetica,sans-Serif" font-size="11.00" fill="#ecf1ed">Alert System</text>
<text text-anchor="middle" x="673" y="-289.2" font-family="Helvetica,sans-Serif" font-size="11.00" fill="#ecf1ed">RED / YELLOW · persist&#45;until&#45;ack</text>
</g>
<!-- sm&#45;&gt;alerts -->
<g id="edge8" class="edge">
<title>sm&#45;&gt;alerts</title>
<path fill="none" stroke="#46b97a" stroke-width="1.1" stroke-dasharray="5,2" d="M750.49,-374.88C733.49,-358.23 708.43,-333.7 691.45,-317.07"/>
</g>
<!-- bounds -->
<g id="node11" class="node">
<title>bounds</title>
<path fill="#1d5e40" stroke="#46b97a" d="M975.5,-317C975.5,-317 812.5,-317 812.5,-317 806.5,-317 800.5,-311 800.5,-305 800.5,-305 800.5,-291 800.5,-291 800.5,-285 806.5,-279 812.5,-279 812.5,-279 975.5,-279 975.5,-279 981.5,-279 987.5,-285 987.5,-291 987.5,-291 987.5,-305 987.5,-305 987.5,-311 981.5,-317 975.5,-317"/>
<text text-anchor="middle" x="894" y="-301.2" font-family="Helvetica,sans-Serif" font-size="11.00" fill="#ecf1ed">Pulse Bounds</text>
<text text-anchor="middle" x="894" y="-289.2" font-family="Helvetica,sans-Serif" font-size="11.00" fill="#ecf1ed">0–200 · cycle&#45;locked changes</text>
</g>
<!-- sm&#45;&gt;bounds -->
<g id="edge9" class="edge">
<title>sm&#45;&gt;bounds</title>
<path fill="none" stroke="#46b97a" stroke-width="1.1" stroke-dasharray="5,2" d="M793.1,-374.88C815.24,-358.23 847.86,-333.7 869.97,-317.07"/>
</g>
<!-- hist -->
<g id="node12" class="node">
<title>hist</title>
<path fill="#2a2418" stroke="#e8a33d" d="M1464,-317C1464,-317 1372,-317 1372,-317 1366,-317 1360,-311 1360,-305 1360,-305 1360,-291 1360,-291 1360,-285 1366,-279 1372,-279 1372,-279 1464,-279 1464,-279 1470,-279 1476,-285 1476,-291 1476,-291 1476,-305 1476,-305 1476,-311 1470,-317 1464,-317"/>
<text text-anchor="middle" x="1418" y="-301.2" font-family="Helvetica,sans-Serif" font-size="11.00" fill="#ecf1ed">Sensor history</text>
<text text-anchor="middle" x="1418" y="-289.2" font-family="Helvetica,sans-Serif" font-size="11.00" fill="#ecf1ed">3&#45;year retention</text>
</g>
<!-- sm&#45;&gt;hist -->
<g id="edge10" class="edge">
<title>sm&#45;&gt;hist</title>
<path fill="none" stroke="#5e7468" stroke-width="1.1" d="M901.48,-389.98C1040.83,-385.49 1251.7,-374.64 1338.31,-349.1"/>
<polygon fill="#5e7468" stroke="#5e7468" stroke-width="1.1" points="901.07,-386.49 891.18,-390.3 901.29,-393.49 901.07,-386.49"/>
<polygon fill="#5e7468" stroke="#5e7468" stroke-width="1.1" points="1339.54,-352.38 1348,-346 1337.41,-345.72 1339.54,-352.38"/>
</g>
<!-- absi -->
<g id="node15" class="node">
<title>absi</title>
<path fill="#1d5e40" stroke="#46b97a" stroke-width="2" d="M1641,-317C1641,-317 1527,-317 1527,-317 1521,-317 1515,-311 1515,-305 1515,-305 1515,-291 1515,-291 1515,-285 1521,-279 1527,-279 1527,-279 1641,-279 1641,-279 1647,-279 1653,-285 1653,-291 1653,-291 1653,-305 1653,-305 1653,-311 1647,-317 1641,-317"/>
<text text-anchor="middle" x="1584" y="-301.2" font-family="Helvetica,sans-Serif" font-size="11.00" fill="#ecf1ed">ControllerAdapter</text>
<text text-anchor="middle" x="1584" y="-289.2" font-family="Helvetica,sans-Serif" font-size="11.00" fill="#ecf1ed">«abstract interface»</text>
</g>
<!-- sm&#45;&gt;absi -->
<g id="edge11" class="edge">
<title>sm&#45;&gt;absi</title>
<path fill="none" stroke="#5e7468" stroke-width="1.1" d="M901.44,-390.64C1073.54,-386.52 1365.6,-375.68 1482.26,-347.91"/>
<polygon fill="#5e7468" stroke="#5e7468" stroke-width="1.1" points="901.18,-387.14 891.27,-390.87 901.35,-394.14 901.18,-387.14"/>
<polygon fill="#5e7468" stroke="#5e7468" stroke-width="1.1" points="1483.17,-351.29 1492,-345.44 1481.45,-344.51 1483.17,-351.29"/>
</g>
<!-- logs -->
<g id="node13" class="node">
<title>logs</title>
<path fill="#2a2418" stroke="#e8a33d" d="M1323,-316C1323,-316 1203,-316 1203,-316 1197,-316 1191,-310 1191,-304 1191,-304 1191,-292 1191,-292 1191,-286 1197,-280 1203,-280 1203,-280 1323,-280 1323,-280 1329,-280 1335,-286 1335,-292 1335,-292 1335,-304 1335,-304 1335,-310 1329,-316 1323,-316"/>
<text text-anchor="middle" x="1263" y="-295.2" font-family="Helvetica,sans-Serif" font-size="11.00" fill="#ecf1ed">Irrigation + alert logs</text>
</g>
<!-- cfg -->
<g id="node14" class="node">
<title>cfg</title>
<path fill="#2a2418" stroke="#e8a33d" d="M1153.5,-316C1153.5,-316 1024.5,-316 1024.5,-316 1018.5,-316 1012.5,-310 1012.5,-304 1012.5,-304 1012.5,-292 1012.5,-292 1012.5,-286 1018.5,-280 1024.5,-280 1024.5,-280 1153.5,-280 1153.5,-280 1159.5,-280 1165.5,-286 1165.5,-292 1165.5,-292 1165.5,-304 1165.5,-304 1165.5,-310 1159.5,-316 1153.5,-316"/>
<text text-anchor="middle" x="1089" y="-295.2" font-family="Helvetica,sans-Serif" font-size="11.00" fill="#ecf1ed">Site config &amp; programs</text>
</g>
<!-- sim -->
<g id="node16" class="node">
<title>sim</title>
<path fill="#1d5e40" stroke="#46b97a" d="M1656.5,-229C1656.5,-229 1511.5,-229 1511.5,-229 1505.5,-229 1499.5,-223 1499.5,-217 1499.5,-217 1499.5,-203 1499.5,-203 1499.5,-197 1505.5,-191 1511.5,-191 1511.5,-191 1656.5,-191 1656.5,-191 1662.5,-191 1668.5,-197 1668.5,-203 1668.5,-203 1668.5,-217 1668.5,-217 1668.5,-223 1662.5,-229 1656.5,-229"/>
<text text-anchor="middle" x="1584" y="-213.2" font-family="Helvetica,sans-Serif" font-size="11.00" fill="#ecf1ed">SimulatedAdapter</text>
<text text-anchor="middle" x="1584" y="-201.2" font-family="Helvetica,sans-Serif" font-size="11.00" fill="#ecf1ed">BUILT · soil physics · 144 readings/day</text>
</g>
<!-- absi&#45;&gt;sim -->
<g id="edge12" class="edge">
<title>absi&#45;&gt;sim</title>
<path fill="none" stroke="#46b97a" stroke-width="1.1" stroke-dasharray="5,2" d="M1584,-278.76C1584,-267.36 1584,-252.43 1584,-239.49"/>
<polygon fill="#46b97a" stroke="#46b97a" stroke-width="1.1" points="1587.5,-239.21 1584,-229.21 1580.5,-239.21 1587.5,-239.21"/>
<text text-anchor="middle" x="1611" y="-251.8" font-family="Helvetica,sans-Serif" font-size="9.00" fill="#8fa396">implements</text>
</g>
<!-- phys -->
<g id="node17" class="node">
<title>phys</title>
<path fill="#16202e" stroke="#5ba3d0" stroke-dasharray="5,2" d="M1876.5,-229C1876.5,-229 1705.5,-229 1705.5,-229 1699.5,-229 1693.5,-223 1693.5,-217 1693.5,-217 1693.5,-203 1693.5,-203 1693.5,-197 1699.5,-191 1705.5,-191 1705.5,-191 1876.5,-191 1876.5,-191 1882.5,-191 1888.5,-197 1888.5,-203 1888.5,-203 1888.5,-217 1888.5,-217 1888.5,-223 1882.5,-229 1876.5,-229"/>
<text text-anchor="middle" x="1791" y="-213.2" font-family="Helvetica,sans-Serif" font-size="11.00" fill="#ecf1ed">PhysicalAdapter</text>
<text text-anchor="middle" x="1791" y="-201.2" font-family="Helvetica,sans-Serif" font-size="11.00" fill="#ecf1ed">TBD · REST / MQTT / Modbus ?</text>
</g>
<!-- absi&#45;&gt;phys -->
<g id="edge13" class="edge">
<title>absi&#45;&gt;phys</title>
<path fill="none" stroke="#5ba3d0" stroke-width="1.1" stroke-dasharray="5,2" d="M1627.39,-278.97C1659.69,-265.56 1703.93,-247.18 1738.26,-232.91"/>
<polygon fill="#5ba3d0" stroke="#5ba3d0" stroke-width="1.1" points="1739.77,-236.07 1747.66,-229 1737.09,-229.61 1739.77,-236.07"/>
<text text-anchor="middle" x="1720" y="-251.8" font-family="Helvetica,sans-Serif" font-size="9.00" fill="#8fa396">implements</text>
</g>
<!-- sim&#45;&gt;sm -->
<g id="edge14" class="edge">
<title>sim&#45;&gt;sm</title>
<path fill="none" stroke="#46b97a" stroke-width="1.1" stroke-dasharray="1,5" d="M1668.68,-227.68C1709.38,-236.11 1750.05,-245.32 1753,-249 1789.18,-294.22 1718.9,-322.45 1666,-346 1598.14,-376.21 1134.37,-387.49 901.64,-391.28"/>
<polygon fill="#46b97a" stroke="#46b97a" stroke-width="1.1" points="901.35,-387.78 891.41,-391.44 901.47,-394.78 901.35,-387.78"/>
<text text-anchor="middle" x="1805.5" y="-295.8" font-family="Helvetica,sans-Serif" font-size="9.00" fill="#8fa396">simulated readings</text>
</g>
<!-- controller -->
<g id="node18" class="node">
<title>controller</title>
<path fill="#16202e" stroke="#5ba3d0" d="M1874,-133C1874,-133 1708,-133 1708,-133 1702,-133 1696,-127 1696,-121 1696,-121 1696,-107 1696,-107 1696,-101 1702,-95 1708,-95 1708,-95 1874,-95 1874,-95 1880,-95 1886,-101 1886,-107 1886,-107 1886,-121 1886,-121 1886,-127 1880,-133 1874,-133"/>
<text text-anchor="middle" x="1791" y="-117.2" font-family="Helvetica,sans-Serif" font-size="11.00" fill="#ecf1ed">Irrigation Controller</text>
<text text-anchor="middle" x="1791" y="-105.2" font-family="Helvetica,sans-Serif" font-size="11.00" fill="#ecf1ed">solenoid on/off · sensor reads</text>
</g>
<!-- phys&#45;&gt;controller -->
<g id="edge15" class="edge">
<title>phys&#45;&gt;controller</title>
<path fill="none" stroke="#5e7468" stroke-width="1.1" d="M1791,-180.78C1791,-178 1791,-175.11 1791,-172.16"/>
<polygon fill="#5e7468" stroke="#5e7468" stroke-width="1.1" points="1787.5,-180.88 1791,-190.88 1794.5,-180.88 1787.5,-180.88"/>
<polygon fill="#5e7468" stroke="#5e7468" stroke-width="1.1" points="1794.5,-172 1791,-162 1787.5,-172 1794.5,-172"/>
</g>
<!-- sensors -->
<g id="node19" class="node">
<title>sensors</title>
<path fill="#16202e" stroke="#5ba3d0" d="M1818,-54C1818,-54 1532,-54 1532,-54 1526,-54 1520,-48 1520,-42 1520,-42 1520,-28 1520,-28 1520,-22 1526,-16 1532,-16 1532,-16 1818,-16 1818,-16 1824,-16 1830,-22 1830,-28 1830,-28 1830,-42 1830,-42 1830,-48 1824,-54 1818,-54"/>
<text text-anchor="middle" x="1675" y="-38.2" font-family="Helvetica,sans-Serif" font-size="11.00" fill="#ecf1ed">Sensors</text>
<text text-anchor="middle" x="1675" y="-26.2" font-family="Helvetica,sans-Serif" font-size="11.00" fill="#ecf1ed">Tensiometer 20+40cm · Acclima VWC/EC/temp · pH</text>
</g>
<!-- controller&#45;&gt;sensors -->
<g id="edge16" class="edge">
<title>controller&#45;&gt;sensors</title>
<path fill="none" stroke="#5e7468" stroke-width="1.1" d="M1755.22,-89.25C1741.14,-79.9 1725,-69.19 1710.9,-59.83"/>
<polygon fill="#5e7468" stroke="#5e7468" stroke-width="1.1" points="1753.54,-92.33 1763.8,-94.95 1757.41,-86.5 1753.54,-92.33"/>
<polygon fill="#5e7468" stroke="#5e7468" stroke-width="1.1" points="1712.7,-56.82 1702.43,-54.21 1708.82,-62.65 1712.7,-56.82"/>
</g>
<!-- hydro -->
<g id="node20" class="node">
<title>hydro</title>
<path fill="#16202e" stroke="#5ba3d0" d="M1990.5,-54C1990.5,-54 1867.5,-54 1867.5,-54 1861.5,-54 1855.5,-48 1855.5,-42 1855.5,-42 1855.5,-28 1855.5,-28 1855.5,-22 1861.5,-16 1867.5,-16 1867.5,-16 1990.5,-16 1990.5,-16 1996.5,-16 2002.5,-22 2002.5,-28 2002.5,-28 2002.5,-42 2002.5,-42 2002.5,-48 1996.5,-54 1990.5,-54"/>
<text text-anchor="middle" x="1929" y="-38.2" font-family="Helvetica,sans-Serif" font-size="11.00" fill="#ecf1ed">Hydraulic system</text>
<text text-anchor="middle" x="1929" y="-26.2" font-family="Helvetica,sans-Serif" font-size="11.00" fill="#ecf1ed">taps · pipes · drippers</text>
</g>
<!-- controller&#45;&gt;hydro -->
<g id="edge17" class="edge">
<title>controller&#45;&gt;hydro</title>
<path fill="none" stroke="#5e7468" stroke-width="1.1" d="M1832.18,-90.02C1849.65,-80.27 1869.99,-68.93 1887.5,-59.16"/>
<polygon fill="#5e7468" stroke="#5e7468" stroke-width="1.1" points="1830.38,-87.02 1823.35,-94.95 1833.79,-93.13 1830.38,-87.02"/>
<polygon fill="#5e7468" stroke="#5e7468" stroke-width="1.1" points="1889.34,-62.14 1896.37,-54.21 1885.93,-56.02 1889.34,-62.14"/>
</g>
</g>
</svg>
